<svg xmlns="http://www.w3.org/2000/svg" viewBox="0 0 64 64" fill="none">
  <rect width="64" height="64" rx="14" fill="#0f766e"/>
  <path d="M18 16h20c4.4 0 8 3.6 8 8v24c0 1.1-.9 2-2 2H24c-4.4 0-8-3.6-8-8V18c0-1.1.9-2 2-2z" fill="#ccfbf1"/>
  <path d="M22 22h14v2.5H22V22zm0 7h14v2.5H22V29zm0 7h10v2.5H22V36z" fill="#0f766e"/>
  <circle cx="46" cy="18" r="7" fill="#f59e0b"/>
  <path d="M43.2 18.2l1.8 1.8 3.8-4" stroke="#0f172a" stroke-width="1.8" stroke-linecap="round" stroke-linejoin="round"/>
</svg>
